<svg width="608" height="557" viewBox="0 0 608 557" fill="none" xmlns="http://www.w3.org/2000/svg">
<path d="M163.333 511C163.333 512.473 164.527 513.667 166 513.667C167.473 513.667 168.667 512.473 168.667 511C168.667 509.527 167.473 508.333 166 508.333C164.527 508.333 163.333 509.527 163.333 511ZM439.333 511C439.333 512.473 440.527 513.667 442 513.667C443.473 513.667 444.667 512.473 444.667 511C444.667 509.527 443.473 508.333 442 508.333C440.527 508.333 439.333 509.527 439.333 511ZM166 511V511.5H442V511V510.5H166V511Z" fill="black"/>
</svg>
