<svg width="608" height="557" viewBox="0 0 608 557" fill="none" xmlns="http://www.w3.org/2000/svg">
<path d="M182.339 199.832C182.246 201.302 183.362 202.569 184.832 202.661C186.302 202.754 187.569 201.638 187.661 200.168C187.754 198.698 186.638 197.431 185.168 197.339C183.698 197.246 182.431 198.362 182.339 199.832ZM293.339 206.832C293.246 208.302 294.362 209.569 295.832 209.661C297.302 209.754 298.569 208.638 298.661 207.168C298.754 205.698 297.638 204.431 296.168 204.339C294.698 204.246 293.431 205.362 293.339 206.832ZM185 200L184.969 200.499L295.969 207.499L296 207L296.031 206.501L185.031 199.501L185 200Z" fill="black"/>
</svg>
