<svg width="608" height="557" viewBox="0 0 608 557" fill="none" xmlns="http://www.w3.org/2000/svg">
<path d="M181.333 105C181.333 106.473 182.527 107.667 184 107.667C185.473 107.667 186.667 106.473 186.667 105C186.667 103.527 185.473 102.333 184 102.333C182.527 102.333 181.333 103.527 181.333 105ZM421.333 105C421.333 106.473 422.527 107.667 424 107.667C425.473 107.667 426.667 106.473 426.667 105C426.667 103.527 425.473 102.333 424 102.333C422.527 102.333 421.333 103.527 421.333 105ZM184 105V105.5H424V105V104.5H184V105Z" fill="black"/>
</svg>
