<svg width="608" height="557" viewBox="0 0 608 557" fill="none" xmlns="http://www.w3.org/2000/svg">
<path d="M429.357 46.5819C429.552 48.0417 430.893 49.0671 432.353 48.8722C433.813 48.6773 434.838 47.3359 434.643 45.8761C434.448 44.4163 433.107 43.3909 431.647 43.5858C430.187 43.7807 429.162 45.1221 429.357 46.5819ZM496.357 105.353C496.552 106.813 497.893 107.838 499.353 107.643C500.813 107.448 501.838 106.107 501.643 104.647C501.448 103.187 500.107 102.162 498.647 102.357C497.187 102.552 496.162 103.893 496.357 105.353ZM432 46.229L431.67 46.6049L498.67 105.376L499 105L499.33 104.624L432.33 45.8531L432 46.229Z" fill="black"/>
</svg>
