<svg width="608" height="557" viewBox="0 0 608 557" fill="none" xmlns="http://www.w3.org/2000/svg">
<path d="M173.333 46C173.333 47.4728 174.527 48.6667 176 48.6667C177.473 48.6667 178.667 47.4728 178.667 46C178.667 44.5272 177.473 43.3333 176 43.3333C174.527 43.3333 173.333 44.5272 173.333 46ZM429.333 46C429.333 47.4728 430.527 48.6667 432 48.6667C433.473 48.6667 434.667 47.4728 434.667 46C434.667 44.5272 433.473 43.3333 432 43.3333C430.527 43.3333 429.333 44.5272 429.333 46ZM176 46V46.5H432V46V45.5H176V46Z" fill="black"/>
</svg>
