<svg width="608" height="557" viewBox="0 0 608 557" fill="none" xmlns="http://www.w3.org/2000/svg">
<path d="M241.333 232C241.333 233.473 242.527 234.667 244 234.667C245.473 234.667 246.667 233.473 246.667 232C246.667 230.527 245.473 229.333 244 229.333C242.527 229.333 241.333 230.527 241.333 232ZM361.333 232C361.333 233.473 362.527 234.667 364 234.667C365.473 234.667 366.667 233.473 366.667 232C366.667 230.527 365.473 229.333 364 229.333C362.527 229.333 361.333 230.527 361.333 232ZM244 232V232.5H364V232V231.5H244V232Z" fill="black"/>
</svg>
