<svg width="608" height="557" viewBox="0 0 608 557" fill="none" xmlns="http://www.w3.org/2000/svg">
<path d="M372.333 27C372.333 28.4728 373.527 29.6667 375 29.6667C376.473 29.6667 377.667 28.4728 377.667 27C377.667 25.5272 376.473 24.3333 375 24.3333C373.527 24.3333 372.333 25.5272 372.333 27ZM372.333 537C372.333 538.473 373.527 539.667 375 539.667C376.473 539.667 377.667 538.473 377.667 537C377.667 535.527 376.473 534.333 375 534.333C373.527 534.333 372.333 535.527 372.333 537ZM375 27L374.5 27L374.5 537L375 537L375.5 537L375.5 27L375 27Z" fill="black"/>
</svg>
