<svg width="608" height="557" viewBox="0 0 608 557" fill="none" xmlns="http://www.w3.org/2000/svg">
<path d="M355.918 45.5819C356.113 47.0417 357.455 48.0671 358.915 47.8722C360.374 47.6773 361.4 46.3358 361.205 44.876C361.01 43.4162 359.669 42.3908 358.209 42.5858C356.749 42.7807 355.724 44.1221 355.918 45.5819ZM386.357 509.353C386.552 510.813 387.893 511.838 389.353 511.643C390.813 511.448 391.838 510.107 391.643 508.647C391.448 507.187 390.107 506.162 388.647 506.357C387.187 506.552 386.162 507.893 386.357 509.353ZM358.562 45.229L358.063 45.2617L388.501 509.033L389 509L389.499 508.967L359.061 45.1962L358.562 45.229Z" fill="black"/>
</svg>
