<svg width="608" height="557" viewBox="0 0 608 557" fill="none" xmlns="http://www.w3.org/2000/svg">
<path d="M54.486 268.195C55.6984 269.031 57.3591 268.726 58.1952 267.514C59.0314 266.302 58.7263 264.641 57.514 263.805C56.3016 262.969 54.6409 263.274 53.8048 264.486C52.9686 265.698 53.2737 267.359 54.486 268.195ZM112.486 308.195C113.698 309.031 115.359 308.726 116.195 307.514C117.031 306.302 116.726 304.641 115.514 303.805C114.302 302.969 112.641 303.274 111.805 304.486C110.969 305.698 111.274 307.359 112.486 308.195ZM56 266L55.7161 266.412L113.716 306.412L114 306L114.284 305.588L56.2839 265.588L56 266Z" fill="black"/>
</svg>
