<svg width="608" height="557" viewBox="0 0 608 557" fill="none" xmlns="http://www.w3.org/2000/svg">
<path d="M361.333 21C361.333 22.4728 362.527 23.6667 364 23.6667C365.473 23.6667 366.667 22.4728 366.667 21C366.667 19.5272 365.473 18.3333 364 18.3333C362.527 18.3333 361.333 19.5272 361.333 21ZM361.333 537C361.333 538.473 362.527 539.667 364 539.667C365.473 539.667 366.667 538.473 366.667 537C366.667 535.527 365.473 534.333 364 534.333C362.527 534.333 361.333 535.527 361.333 537ZM364 21L363.5 21L363.5 537L364 537L364.5 537L364.5 21L364 21Z" fill="black"/>
</svg>
