<svg width="608" height="557" viewBox="0 0 608 557" fill="none" xmlns="http://www.w3.org/2000/svg">
<path d="M301.333 44C301.333 45.4728 302.527 46.6667 304 46.6667C305.473 46.6667 306.667 45.4728 306.667 44C306.667 42.5272 305.473 41.3333 304 41.3333C302.527 41.3333 301.333 42.5272 301.333 44ZM301.333 178C301.333 179.473 302.527 180.667 304 180.667C305.473 180.667 306.667 179.473 306.667 178C306.667 176.527 305.473 175.333 304 175.333C302.527 175.333 301.333 176.527 301.333 178ZM304 44L303.5 44L303.5 178L304 178L304.5 178L304.5 44L304 44Z" fill="black"/>
</svg>
