<svg width="608" height="557" viewBox="0 0 608 557" fill="none" xmlns="http://www.w3.org/2000/svg">
<path d="M199.333 181C199.333 182.473 200.527 183.667 202 183.667C203.473 183.667 204.667 182.473 204.667 181C204.667 179.527 203.473 178.333 202 178.333C200.527 178.333 199.333 179.527 199.333 181ZM146.333 171C146.333 172.473 147.527 173.667 149 173.667C150.473 173.667 151.667 172.473 151.667 171C151.667 169.527 150.473 168.333 149 168.333C147.527 168.333 146.333 169.527 146.333 171ZM202 181L202.093 180.509L149.093 170.509L149 171L148.907 171.491L201.907 181.491L202 181Z" fill="black"/>
</svg>
