<svg width="608" height="557" viewBox="0 0 608 557" fill="none" xmlns="http://www.w3.org/2000/svg">
<path d="M372.333 47C372.333 48.4728 373.527 49.6667 375 49.6667C376.473 49.6667 377.667 48.4728 377.667 47C377.667 45.5272 376.473 44.3333 375 44.3333C373.527 44.3333 372.333 45.5272 372.333 47ZM372.333 511C372.333 512.473 373.527 513.667 375 513.667C376.473 513.667 377.667 512.473 377.667 511C377.667 509.527 376.473 508.333 375 508.333C373.527 508.333 372.333 509.527 372.333 511ZM375 47L374.5 47L374.5 511L375 511L375.5 511L375.5 47L375 47Z" fill="black"/>
</svg>
