<svg width="608" height="557" viewBox="0 0 608 557" fill="none" xmlns="http://www.w3.org/2000/svg">
<path d="M478.333 256C478.333 257.473 479.527 258.667 481 258.667C482.473 258.667 483.667 257.473 483.667 256C483.667 254.527 482.473 253.333 481 253.333C479.527 253.333 478.333 254.527 478.333 256ZM449.333 86C449.333 87.4728 450.527 88.6667 452 88.6667C453.473 88.6667 454.667 87.4728 454.667 86C454.667 84.5272 453.473 83.3333 452 83.3333C450.527 83.3333 449.333 84.5272 449.333 86ZM481 256L481.493 255.916L452.493 85.9159L452 86L451.507 86.0841L480.507 256.084L481 256Z" fill="black"/>
</svg>
