<svg width="608" height="557" viewBox="0 0 608 557" fill="none" xmlns="http://www.w3.org/2000/svg">
<path d="M173.333 45C173.333 46.4728 174.527 47.6667 176 47.6667C177.473 47.6667 178.667 46.4728 178.667 45C178.667 43.5272 177.473 42.3333 176 42.3333C174.527 42.3333 173.333 43.5272 173.333 45ZM429.333 45C429.333 46.4728 430.527 47.6667 432 47.6667C433.473 47.6667 434.667 46.4728 434.667 45C434.667 43.5272 433.473 42.3333 432 42.3333C430.527 42.3333 429.333 43.5272 429.333 45ZM176 45V45.5H432V45V44.5H176V45Z" fill="black"/>
</svg>
