<svg width="550" height="550" viewBox="0 0 550 550" fill="none" xmlns="http://www.w3.org/2000/svg">
<path d="M535.333 341C535.333 342.473 536.527 343.667 538 343.667C539.473 343.667 540.667 342.473 540.667 341C540.667 339.527 539.473 338.333 538 338.333C536.527 338.333 535.333 339.527 535.333 341ZM405.333 112C405.333 113.473 406.527 114.667 408 114.667C409.473 114.667 410.667 113.473 410.667 112C410.667 110.527 409.473 109.333 408 109.333C406.527 109.333 405.333 110.527 405.333 112ZM538 341L538.435 340.753L408.435 111.753L408 112L407.565 112.247L537.565 341.247L538 341Z" fill="black"/>
</svg>
