<svg width="550" height="550" viewBox="0 0 550 550" fill="none" xmlns="http://www.w3.org/2000/svg">
<path d="M160.333 212C160.333 213.473 161.527 214.667 163 214.667C164.473 214.667 165.667 213.473 165.667 212C165.667 210.527 164.473 209.333 163 209.333C161.527 209.333 160.333 210.527 160.333 212ZM382.333 212C382.333 213.473 383.527 214.667 385 214.667C386.473 214.667 387.667 213.473 387.667 212C387.667 210.527 386.473 209.333 385 209.333C383.527 209.333 382.333 210.527 382.333 212ZM163 212V212.5H385V212V211.5H163V212Z" fill="black"/>
</svg>
