<svg width="608" height="557" viewBox="0 0 608 557" fill="none" xmlns="http://www.w3.org/2000/svg">
<path d="M375.357 99.3529C375.552 100.813 376.893 101.838 378.353 101.643C379.813 101.448 380.838 100.107 380.643 98.6471C380.448 97.1873 379.107 96.1619 377.647 96.3568C376.187 96.5517 375.162 97.8931 375.357 99.3529ZM422.357 451.353C422.552 452.813 423.893 453.838 425.353 453.643C426.813 453.448 427.838 452.107 427.643 450.647C427.448 449.187 426.107 448.162 424.647 448.357C423.187 448.552 422.162 449.893 422.357 451.353ZM378 99L377.504 99.0662L424.504 451.066L425 451L425.496 450.934L378.496 98.9338L378 99Z" fill="black"/>
</svg>
