<svg width="608" height="557" viewBox="0 0 608 557" fill="none" xmlns="http://www.w3.org/2000/svg">
<path d="M309.334 178.056C309.365 179.528 310.583 180.697 312.056 180.666C313.528 180.635 314.697 179.417 314.666 177.944C314.635 176.472 313.417 175.303 311.944 175.334C310.472 175.365 309.303 176.583 309.334 178.056ZM316.334 513.056C316.365 514.528 317.583 515.697 319.056 515.666C320.528 515.635 321.697 514.417 321.666 512.944C321.635 511.472 320.417 510.303 318.944 510.334C317.472 510.365 316.303 511.583 316.334 513.056ZM312 178L311.5 178.01L318.5 513.01L319 513L319.5 512.99L312.5 177.99L312 178Z" fill="black"/>
</svg>
