<svg width="608" height="557" viewBox="0 0 608 557" fill="none" xmlns="http://www.w3.org/2000/svg">
<path d="M173.333 47C173.333 48.4728 174.527 49.6667 176 49.6667C177.473 49.6667 178.667 48.4728 178.667 47C178.667 45.5272 177.473 44.3333 176 44.3333C174.527 44.3333 173.333 45.5272 173.333 47ZM429.333 47C429.333 48.4728 430.527 49.6667 432 49.6667C433.473 49.6667 434.667 48.4728 434.667 47C434.667 45.5272 433.473 44.3333 432 44.3333C430.527 44.3333 429.333 45.5272 429.333 47ZM176 47V47.5H432V47V46.5H176V47Z" fill="black"/>
</svg>
