<svg width="608" height="557" viewBox="0 0 608 557" fill="none" xmlns="http://www.w3.org/2000/svg">
<path d="M100.333 452C100.333 453.473 101.527 454.667 103 454.667C104.473 454.667 105.667 453.473 105.667 452C105.667 450.527 104.473 449.333 103 449.333C101.527 449.333 100.333 450.527 100.333 452ZM502.333 452C502.333 453.473 503.527 454.667 505 454.667C506.473 454.667 507.667 453.473 507.667 452C507.667 450.527 506.473 449.333 505 449.333C503.527 449.333 502.333 450.527 502.333 452ZM103 452V452.5H505V452V451.5H103V452Z" fill="black"/>
</svg>
