<svg width="550" height="550" viewBox="0 0 550 550" fill="none" xmlns="http://www.w3.org/2000/svg">
<path d="M327.333 98C327.333 99.4728 328.527 100.667 330 100.667C331.473 100.667 332.667 99.4728 332.667 98C332.667 96.5272 331.473 95.3333 330 95.3333C328.527 95.3333 327.333 96.5272 327.333 98ZM327.333 420C327.333 421.473 328.527 422.667 330 422.667C331.473 422.667 332.667 421.473 332.667 420C332.667 418.527 331.473 417.333 330 417.333C328.527 417.333 327.333 418.527 327.333 420ZM330 98L329.5 98L329.5 420L330 420L330.5 420L330.5 98L330 98Z" fill="black"/>
</svg>
