<svg width="608" height="557" viewBox="0 0 608 557" fill="none" xmlns="http://www.w3.org/2000/svg">
<path d="M170.333 47C170.333 48.4728 171.527 49.6667 173 49.6667C174.473 49.6667 175.667 48.4728 175.667 47C175.667 45.5272 174.473 44.3333 173 44.3333C171.527 44.3333 170.333 45.5272 170.333 47ZM432.333 47C432.333 48.4728 433.527 49.6667 435 49.6667C436.473 49.6667 437.667 48.4728 437.667 47C437.667 45.5272 436.473 44.3333 435 44.3333C433.527 44.3333 432.333 45.5272 432.333 47ZM173 47V47.5H435V47V46.5H173V47Z" fill="black"/>
</svg>
