<svg width="608" height="557" viewBox="0 0 608 557" fill="none" xmlns="http://www.w3.org/2000/svg">
<path d="M312.358 349.36C312.557 350.82 313.901 351.841 315.36 351.642C316.82 351.443 317.841 350.099 317.642 348.64C317.443 347.18 316.099 346.159 314.64 346.358C313.18 346.557 312.159 347.901 312.358 349.36ZM327.358 459.36C327.557 460.82 328.901 461.841 330.36 461.642C331.82 461.443 332.841 460.099 332.642 458.64C332.443 457.18 331.099 456.159 329.64 456.358C328.18 456.557 327.159 457.901 327.358 459.36ZM315 349L314.505 349.068L329.505 459.068L330 459L330.495 458.932L315.495 348.932L315 349Z" fill="black"/>
</svg>
