<svg width="608" height="557" viewBox="0 0 608 557" fill="none" xmlns="http://www.w3.org/2000/svg">
<path d="M157.333 537C157.333 538.473 158.527 539.667 160 539.667C161.473 539.667 162.667 538.473 162.667 537C162.667 535.527 161.473 534.333 160 534.333C158.527 534.333 157.333 535.527 157.333 537ZM445.333 537C445.333 538.473 446.527 539.667 448 539.667C449.473 539.667 450.667 538.473 450.667 537C450.667 535.527 449.473 534.333 448 534.333C446.527 534.333 445.333 535.527 445.333 537ZM160 537V537.5H448V537V536.5H160V537Z" fill="black"/>
</svg>
