<svg width="608" height="557" viewBox="0 0 608 557" fill="none" xmlns="http://www.w3.org/2000/svg">
<path d="M190.333 43C190.333 44.4728 191.527 45.6667 193 45.6667C194.473 45.6667 195.667 44.4728 195.667 43C195.667 41.5272 194.473 40.3333 193 40.3333C191.527 40.3333 190.333 41.5272 190.333 43ZM412.333 43C412.333 44.4728 413.527 45.6667 415 45.6667C416.473 45.6667 417.667 44.4728 417.667 43C417.667 41.5272 416.473 40.3333 415 40.3333C413.527 40.3333 412.333 41.5272 412.333 43ZM193 43V43.5H415V43V42.5H193V43Z" fill="black"/>
</svg>
