<svg width="608" height="557" viewBox="0 0 608 557" fill="none" xmlns="http://www.w3.org/2000/svg">
<path d="M455.333 200C455.333 201.473 456.527 202.667 458 202.667C459.473 202.667 460.667 201.473 460.667 200C460.667 198.527 459.473 197.333 458 197.333C456.527 197.333 455.333 198.527 455.333 200ZM429.333 47C429.333 48.4728 430.527 49.6667 432 49.6667C433.473 49.6667 434.667 48.4728 434.667 47C434.667 45.5272 433.473 44.3333 432 44.3333C430.527 44.3333 429.333 45.5272 429.333 47ZM458 200L458.493 199.916L432.493 46.9162L432 47L431.507 47.0838L457.507 200.084L458 200Z" fill="black"/>
</svg>
