<svg width="608" height="557" viewBox="0 0 608 557" fill="none" xmlns="http://www.w3.org/2000/svg">
<path d="M78.3468 352.732C78.1989 354.197 79.2668 355.505 80.7321 355.653C82.1974 355.801 83.5052 354.733 83.6532 353.268C83.8011 351.803 82.7332 350.495 81.2679 350.347C79.8026 350.199 78.4948 351.267 78.3468 352.732ZM286.347 373.732C286.199 375.197 287.267 376.505 288.732 376.653C290.197 376.801 291.505 375.733 291.653 374.268C291.801 372.803 290.733 371.495 289.268 371.347C287.803 371.199 286.495 372.267 286.347 373.732ZM81 353L80.9498 353.497L288.95 374.497L289 374L289.05 373.503L81.0502 352.503L81 353Z" fill="black"/>
</svg>
