<svg width="550" height="550" viewBox="0 0 550 550" fill="none" xmlns="http://www.w3.org/2000/svg">
<path d="M70.3333 384C70.3333 385.473 71.5272 386.667 73 386.667C74.4728 386.667 75.6667 385.473 75.6667 384C75.6667 382.527 74.4728 381.333 73 381.333C71.5272 381.333 70.3333 382.527 70.3333 384ZM10.3333 343C10.3333 344.473 11.5272 345.667 13 345.667C14.4728 345.667 15.6667 344.473 15.6667 343C15.6667 341.527 14.4728 340.333 13 340.333C11.5272 340.333 10.3333 341.527 10.3333 343ZM73 384L73.2821 383.587L13.2821 342.587L13 343L12.7179 343.413L72.7179 384.413L73 384Z" fill="black"/>
</svg>
