<svg width="608" height="557" viewBox="0 0 608 557" fill="none" xmlns="http://www.w3.org/2000/svg">
<path d="M211.333 144C211.333 145.473 212.527 146.667 214 146.667C215.473 146.667 216.667 145.473 216.667 144C216.667 142.527 215.473 141.333 214 141.333C212.527 141.333 211.333 142.527 211.333 144ZM170.333 47C170.333 48.4728 171.527 49.6667 173 49.6667C174.473 49.6667 175.667 48.4728 175.667 47C175.667 45.5272 174.473 44.3333 173 44.3333C171.527 44.3333 170.333 45.5272 170.333 47ZM214 144L214.461 143.805L173.461 46.8053L173 47L172.539 47.1947L213.539 144.195L214 144Z" fill="black"/>
</svg>
