<svg width="608" height="557" viewBox="0 0 608 557" fill="none" xmlns="http://www.w3.org/2000/svg">
<path d="M211.333 144C211.333 145.473 212.527 146.667 214 146.667C215.473 146.667 216.667 145.473 216.667 144C216.667 142.527 215.473 141.333 214 141.333C212.527 141.333 211.333 142.527 211.333 144ZM173.333 47C173.333 48.4728 174.527 49.6667 176 49.6667C177.473 49.6667 178.667 48.4728 178.667 47C178.667 45.5272 177.473 44.3333 176 44.3333C174.527 44.3333 173.333 45.5272 173.333 47ZM214 144L214.466 143.818L176.466 46.8176L176 47L175.534 47.1824L213.534 144.182L214 144Z" fill="black"/>
</svg>
