<svg width="608" height="557" viewBox="0 0 608 557" fill="none" xmlns="http://www.w3.org/2000/svg">
<path d="M151.339 503.821C151.241 505.291 152.352 506.562 153.821 506.661C155.291 506.759 156.562 505.648 156.661 504.179C156.759 502.709 155.648 501.438 154.179 501.339C152.709 501.241 151.438 502.352 151.339 503.821ZM285.339 512.821C285.241 514.291 286.352 515.562 287.821 515.661C289.291 515.759 290.562 514.648 290.661 513.179C290.759 511.709 289.648 510.438 288.179 510.339C286.709 510.241 285.438 511.352 285.339 512.821ZM154 504L153.966 504.499L287.967 513.499L288 513L288.034 512.501L154.034 503.501L154 504Z" fill="black"/>
</svg>
