<svg width="608" height="557" viewBox="0 0 608 557" fill="none" xmlns="http://www.w3.org/2000/svg">
<path d="M188.333 270C188.333 271.473 189.527 272.667 191 272.667C192.473 272.667 193.667 271.473 193.667 270C193.667 268.527 192.473 267.333 191 267.333C189.527 267.333 188.333 268.527 188.333 270ZM125.333 258C125.333 259.473 126.527 260.667 128 260.667C129.473 260.667 130.667 259.473 130.667 258C130.667 256.527 129.473 255.333 128 255.333C126.527 255.333 125.333 256.527 125.333 258ZM191 270L191.094 269.509L128.094 257.509L128 258L127.906 258.491L190.906 270.491L191 270Z" fill="black"/>
</svg>
