<svg width="608" height="557" viewBox="0 0 608 557" fill="none" xmlns="http://www.w3.org/2000/svg">
<path d="M97.3333 249C97.3333 250.473 98.5272 251.667 100 251.667C101.473 251.667 102.667 250.473 102.667 249C102.667 247.527 101.473 246.333 100 246.333C98.5272 246.333 97.3333 247.527 97.3333 249ZM505.333 249C505.333 250.473 506.527 251.667 508 251.667C509.473 251.667 510.667 250.473 510.667 249C510.667 247.527 509.473 246.333 508 246.333C506.527 246.333 505.333 247.527 505.333 249ZM100 249V249.5H508V249V248.5H100V249Z" fill="black"/>
</svg>
