<svg width="608" height="557" viewBox="0 0 608 557" fill="none" xmlns="http://www.w3.org/2000/svg">
<path d="M380.857 101.853C381.052 103.313 382.393 104.338 383.853 104.143C385.313 103.948 386.338 102.607 386.143 101.147C385.948 99.6873 384.607 98.6619 383.147 98.8568C381.687 99.0517 380.662 100.393 380.857 101.853ZM436.357 447.353C436.552 448.813 437.893 449.838 439.353 449.643C440.813 449.448 441.838 448.107 441.643 446.647C441.448 445.187 440.107 444.162 438.647 444.357C437.187 444.552 436.162 445.893 436.357 447.353ZM383.5 101.5L383.006 101.579L438.506 447.079L439 447L439.494 446.921L383.994 101.421L383.5 101.5Z" fill="black"/>
</svg>
