<svg width="608" height="557" viewBox="0 0 608 557" fill="none" xmlns="http://www.w3.org/2000/svg">
<path d="M132.333 99C132.333 100.473 133.527 101.667 135 101.667C136.473 101.667 137.667 100.473 137.667 99C137.667 97.5272 136.473 96.3333 135 96.3333C133.527 96.3333 132.333 97.5272 132.333 99ZM470.333 99C470.333 100.473 471.527 101.667 473 101.667C474.473 101.667 475.667 100.473 475.667 99C475.667 97.5272 474.473 96.3333 473 96.3333C471.527 96.3333 470.333 97.5272 470.333 99ZM135 99V99.5H473V99V98.5H135V99Z" fill="black"/>
</svg>
