<svg width="550" height="550" viewBox="0 0 550 550" fill="none" xmlns="http://www.w3.org/2000/svg">
<path d="M429.833 86.5C429.833 87.9728 431.027 89.1667 432.5 89.1667C433.973 89.1667 435.167 87.9728 435.167 86.5C435.167 85.0272 433.973 83.8333 432.5 83.8333C431.027 83.8333 429.833 85.0272 429.833 86.5ZM526.333 177.5C526.333 178.973 527.527 180.167 529 180.167C530.473 180.167 531.667 178.973 531.667 177.5C531.667 176.027 530.473 174.833 529 174.833C527.527 174.833 526.333 176.027 526.333 177.5ZM432.5 86.5L432.157 86.8638L528.657 177.864L529 177.5L529.343 177.136L432.843 86.1362L432.5 86.5Z" fill="black"/>
</svg>
