<svg width="608" height="557" viewBox="0 0 608 557" fill="none" xmlns="http://www.w3.org/2000/svg">
<path d="M197.333 524C197.333 525.473 198.527 526.667 200 526.667C201.473 526.667 202.667 525.473 202.667 524C202.667 522.527 201.473 521.333 200 521.333C198.527 521.333 197.333 522.527 197.333 524ZM405.333 524C405.333 525.473 406.527 526.667 408 526.667C409.473 526.667 410.667 525.473 410.667 524C410.667 522.527 409.473 521.333 408 521.333C406.527 521.333 405.333 522.527 405.333 524ZM200 524V524.5H408V524V523.5H200V524Z" fill="black"/>
</svg>
