<svg width="608" height="557" viewBox="0 0 608 557" fill="none" xmlns="http://www.w3.org/2000/svg">
<path d="M211.333 144C211.333 145.473 212.527 146.667 214 146.667C215.473 146.667 216.667 145.473 216.667 144C216.667 142.527 215.473 141.333 214 141.333C212.527 141.333 211.333 142.527 211.333 144ZM391.333 144C391.333 145.473 392.527 146.667 394 146.667C395.473 146.667 396.667 145.473 396.667 144C396.667 142.527 395.473 141.333 394 141.333C392.527 141.333 391.333 142.527 391.333 144ZM214 144V144.5H394V144V143.5H214V144Z" fill="black"/>
</svg>
