<svg width="608" height="557" viewBox="0 0 608 557" fill="none" xmlns="http://www.w3.org/2000/svg">
<path d="M108.333 246C108.333 247.473 109.527 248.667 111 248.667C112.473 248.667 113.667 247.473 113.667 246C113.667 244.527 112.473 243.333 111 243.333C109.527 243.333 108.333 244.527 108.333 246ZM494.333 246C494.333 247.473 495.527 248.667 497 248.667C498.473 248.667 499.667 247.473 499.667 246C499.667 244.527 498.473 243.333 497 243.333C495.527 243.333 494.333 244.527 494.333 246ZM111 246V246.5H497V246V245.5H111V246Z" fill="black"/>
</svg>
