<svg width="608" height="557" viewBox="0 0 608 557" fill="none" xmlns="http://www.w3.org/2000/svg">
<path d="M133.333 535C133.333 536.473 134.527 537.667 136 537.667C137.473 537.667 138.667 536.473 138.667 535C138.667 533.527 137.473 532.333 136 532.333C134.527 532.333 133.333 533.527 133.333 535ZM469.333 535C469.333 536.473 470.527 537.667 472 537.667C473.473 537.667 474.667 536.473 474.667 535C474.667 533.527 473.473 532.333 472 532.333C470.527 532.333 469.333 533.527 469.333 535ZM136 535V535.5H472V535V534.5H136V535Z" fill="black"/>
</svg>
