<svg width="608" height="557" viewBox="0 0 608 557" fill="none" xmlns="http://www.w3.org/2000/svg">
<path d="M59.3498 434.704C59.1864 436.168 60.2405 437.487 61.7042 437.65C63.1678 437.814 64.4868 436.76 64.6502 435.296C64.8136 433.832 63.7595 432.513 62.2958 432.35C60.8322 432.186 59.5132 433.24 59.3498 434.704ZM274.35 458.704C274.186 460.168 275.241 461.487 276.704 461.65C278.168 461.814 279.487 460.76 279.65 459.296C279.814 457.832 278.76 456.513 277.296 456.35C275.832 456.186 274.513 457.24 274.35 458.704ZM62 435L61.9445 435.497L276.945 459.497L277 459L277.055 458.503L62.0555 434.503L62 435Z" fill="black"/>
</svg>
