<svg width="608" height="557" viewBox="0 0 608 557" fill="none" xmlns="http://www.w3.org/2000/svg">
<path d="M222.333 123C222.333 124.473 223.527 125.667 225 125.667C226.473 125.667 227.667 124.473 227.667 123C227.667 121.527 226.473 120.333 225 120.333C223.527 120.333 222.333 121.527 222.333 123ZM380.333 123C380.333 124.473 381.527 125.667 383 125.667C384.473 125.667 385.667 124.473 385.667 123C385.667 121.527 384.473 120.333 383 120.333C381.527 120.333 380.333 121.527 380.333 123ZM225 123V123.5H383V123V122.5H225V123Z" fill="black"/>
</svg>
