<svg width="608" height="557" viewBox="0 0 608 557" fill="none" xmlns="http://www.w3.org/2000/svg">
<path d="M147.333 365C147.333 366.473 148.527 367.667 150 367.667C151.473 367.667 152.667 366.473 152.667 365C152.667 363.527 151.473 362.333 150 362.333C148.527 362.333 147.333 363.527 147.333 365ZM84.3333 351C84.3333 352.473 85.5272 353.667 87 353.667C88.4728 353.667 89.6667 352.473 89.6667 351C89.6667 349.527 88.4728 348.333 87 348.333C85.5272 348.333 84.3333 349.527 84.3333 351ZM150 365L150.108 364.512L87.1085 350.512L87 351L86.8915 351.488L149.892 365.488L150 365Z" fill="black"/>
</svg>
