<svg width="608" height="557" viewBox="0 0 608 557" fill="none" xmlns="http://www.w3.org/2000/svg">
<path d="M133.333 537C133.333 538.473 134.527 539.667 136 539.667C137.473 539.667 138.667 538.473 138.667 537C138.667 535.527 137.473 534.333 136 534.333C134.527 534.333 133.333 535.527 133.333 537ZM469.333 537C469.333 538.473 470.527 539.667 472 539.667C473.473 539.667 474.667 538.473 474.667 537C474.667 535.527 473.473 534.333 472 534.333C470.527 534.333 469.333 535.527 469.333 537ZM136 537V537.5H472V537V536.5H136V537Z" fill="black"/>
</svg>
