<svg width="608" height="557" viewBox="0 0 608 557" fill="none" xmlns="http://www.w3.org/2000/svg">
<path d="M211.333 123C211.333 124.473 212.527 125.667 214 125.667C215.473 125.667 216.667 124.473 216.667 123C216.667 121.527 215.473 120.333 214 120.333C212.527 120.333 211.333 121.527 211.333 123ZM391.333 123C391.333 124.473 392.527 125.667 394 125.667C395.473 125.667 396.667 124.473 396.667 123C396.667 121.527 395.473 120.333 394 120.333C392.527 120.333 391.333 121.527 391.333 123ZM214 123V123.5H394V123V122.5H214V123Z" fill="black"/>
</svg>
