<svg width="608" height="557" viewBox="0 0 608 557" fill="none" xmlns="http://www.w3.org/2000/svg">
<path d="M196.333 141C196.333 142.473 197.527 143.667 199 143.667C200.473 143.667 201.667 142.473 201.667 141C201.667 139.527 200.473 138.333 199 138.333C197.527 138.333 196.333 139.527 196.333 141ZM406.333 141C406.333 142.473 407.527 143.667 409 143.667C410.473 143.667 411.667 142.473 411.667 141C411.667 139.527 410.473 138.333 409 138.333C407.527 138.333 406.333 139.527 406.333 141ZM199 141V141.5H409V141V140.5H199V141Z" fill="black"/>
</svg>
