<svg width="608" height="557" viewBox="0 0 608 557" fill="none" xmlns="http://www.w3.org/2000/svg">
<path d="M372.333 25C372.333 26.4728 373.527 27.6667 375 27.6667C376.473 27.6667 377.667 26.4728 377.667 25C377.667 23.5272 376.473 22.3333 375 22.3333C373.527 22.3333 372.333 23.5272 372.333 25ZM372.333 535C372.333 536.473 373.527 537.667 375 537.667C376.473 537.667 377.667 536.473 377.667 535C377.667 533.527 376.473 532.333 375 532.333C373.527 532.333 372.333 533.527 372.333 535ZM375 25L374.5 25L374.5 535L375 535L375.5 535L375.5 25L375 25Z" fill="black"/>
</svg>
