<svg width="608" height="557" viewBox="0 0 608 557" fill="none" xmlns="http://www.w3.org/2000/svg">
<path d="M518.333 350C518.333 351.473 519.527 352.667 521 352.667C522.473 352.667 523.667 351.473 523.667 350C523.667 348.527 522.473 347.333 521 347.333C519.527 347.333 518.333 348.527 518.333 350ZM432.333 47C432.333 48.4728 433.527 49.6667 435 49.6667C436.473 49.6667 437.667 48.4728 437.667 47C437.667 45.5272 436.473 44.3333 435 44.3333C433.527 44.3333 432.333 45.5272 432.333 47ZM521 350L521.481 349.863L435.481 46.8635L435 47L434.519 47.1365L520.519 350.137L521 350Z" fill="black"/>
</svg>
