<svg width="550" height="550" viewBox="0 0 550 550" fill="none" xmlns="http://www.w3.org/2000/svg">
<path d="M160.333 420C160.333 421.473 161.527 422.667 163 422.667C164.473 422.667 165.667 421.473 165.667 420C165.667 418.527 164.473 417.333 163 417.333C161.527 417.333 160.333 418.527 160.333 420ZM382.333 420C382.333 421.473 383.527 422.667 385 422.667C386.473 422.667 387.667 421.473 387.667 420C387.667 418.527 386.473 417.333 385 417.333C383.527 417.333 382.333 418.527 382.333 420ZM163 420V420.5H385V420V419.5H163V420Z" fill="black"/>
</svg>
