<svg width="608" height="557" viewBox="0 0 608 557" fill="none" xmlns="http://www.w3.org/2000/svg">
<path d="M429.357 46.5819C429.552 48.0417 430.893 49.0671 432.353 48.8722C433.813 48.6773 434.838 47.3359 434.643 45.8761C434.448 44.4163 433.107 43.3909 431.647 43.5858C430.187 43.7807 429.162 45.1221 429.357 46.5819ZM549.357 263.353C549.552 264.813 550.893 265.838 552.353 265.643C553.813 265.448 554.838 264.107 554.643 262.647C554.448 261.187 553.107 260.162 551.647 260.357C550.187 260.552 549.162 261.893 549.357 263.353ZM432 46.229L431.563 46.4712L551.563 263.242L552 263L552.437 262.758L432.437 45.9868L432 46.229Z" fill="black"/>
</svg>
