<svg width="608" height="557" viewBox="0 0 608 557" fill="none" xmlns="http://www.w3.org/2000/svg">
<path d="M137.333 110C137.333 111.473 138.527 112.667 140 112.667C141.473 112.667 142.667 111.473 142.667 110C142.667 108.527 141.473 107.333 140 107.333C138.527 107.333 137.333 108.527 137.333 110ZM465.333 110C465.333 111.473 466.527 112.667 468 112.667C469.473 112.667 470.667 111.473 470.667 110C470.667 108.527 469.473 107.333 468 107.333C466.527 107.333 465.333 108.527 465.333 110ZM140 110V110.5H468V110V109.5H140V110Z" fill="black"/>
</svg>
