<svg width="608" height="557" viewBox="0 0 608 557" fill="none" xmlns="http://www.w3.org/2000/svg">
<path d="M191.333 122C191.333 123.473 192.527 124.667 194 124.667C195.473 124.667 196.667 123.473 196.667 122C196.667 120.527 195.473 119.333 194 119.333C192.527 119.333 191.333 120.527 191.333 122ZM411.333 122C411.333 123.473 412.527 124.667 414 124.667C415.473 124.667 416.667 123.473 416.667 122C416.667 120.527 415.473 119.333 414 119.333C412.527 119.333 411.333 120.527 411.333 122ZM194 122V122.5H414V122V121.5H194V122Z" fill="black"/>
</svg>
