<svg width="608" height="557" viewBox="0 0 608 557" fill="none" xmlns="http://www.w3.org/2000/svg">
<path d="M199.328 189C199.328 190.473 200.522 191.667 201.995 191.667C203.468 191.667 204.662 190.473 204.662 189C204.662 187.527 203.468 186.333 201.995 186.333C200.522 186.333 199.328 187.527 199.328 189ZM402.338 189C402.338 190.473 403.532 191.667 405.005 191.667C406.478 191.667 407.672 190.473 407.672 189C407.672 187.527 406.478 186.333 405.005 186.333C403.532 186.333 402.338 187.527 402.338 189ZM201.995 189V189.5H405.005V189V188.5H201.995V189Z" fill="black"/>
</svg>
