<svg width="608" height="557" viewBox="0 0 608 557" fill="none" xmlns="http://www.w3.org/2000/svg">
<path d="M186.333 304C186.333 305.473 187.527 306.667 189 306.667C190.473 306.667 191.667 305.473 191.667 304C191.667 302.527 190.473 301.333 189 301.333C187.527 301.333 186.333 302.527 186.333 304ZM138.333 289C138.333 290.473 139.527 291.667 141 291.667C142.473 291.667 143.667 290.473 143.667 289C143.667 287.527 142.473 286.333 141 286.333C139.527 286.333 138.333 287.527 138.333 289ZM189 304L189.149 303.523L141.149 288.523L141 289L140.851 289.477L188.851 304.477L189 304Z" fill="black"/>
</svg>
