<svg width="608" height="557" viewBox="0 0 608 557" fill="none" xmlns="http://www.w3.org/2000/svg">
<path d="M163.833 222C163.833 223.473 165.027 224.667 166.5 224.667C167.973 224.667 169.167 223.473 169.167 222C169.167 220.527 167.973 219.333 166.5 219.333C165.027 219.333 163.833 220.527 163.833 222ZM437.833 222C437.833 223.473 439.027 224.667 440.5 224.667C441.973 224.667 443.167 223.473 443.167 222C443.167 220.527 441.973 219.333 440.5 219.333C439.027 219.333 437.833 220.527 437.833 222ZM166.5 222.5H440.5V221.5H166.5V222.5Z" fill="black"/>
</svg>
