<svg width="608" height="557" viewBox="0 0 608 557" fill="none" xmlns="http://www.w3.org/2000/svg">
<path d="M205.333 47C205.333 48.4728 206.527 49.6667 208 49.6667C209.473 49.6667 210.667 48.4728 210.667 47C210.667 45.5272 209.473 44.3333 208 44.3333C206.527 44.3333 205.333 45.5272 205.333 47ZM397.333 47C397.333 48.4728 398.527 49.6667 400 49.6667C401.473 49.6667 402.667 48.4728 402.667 47C402.667 45.5272 401.473 44.3333 400 44.3333C398.527 44.3333 397.333 45.5272 397.333 47ZM208 47V47.5H400V47V46.5H208V47Z" fill="black"/>
</svg>
