<svg width="608" height="557" viewBox="0 0 608 557" fill="none" xmlns="http://www.w3.org/2000/svg">
<path d="M250.333 198C250.333 199.473 251.527 200.667 253 200.667C254.473 200.667 255.667 199.473 255.667 198C255.667 196.527 254.473 195.333 253 195.333C251.527 195.333 250.333 196.527 250.333 198ZM352.333 198C352.333 199.473 353.527 200.667 355 200.667C356.473 200.667 357.667 199.473 357.667 198C357.667 196.527 356.473 195.333 355 195.333C353.527 195.333 352.333 196.527 352.333 198ZM253 198V198.5H355V198V197.5H253V198Z" fill="black"/>
</svg>
