<svg width="608" height="557" viewBox="0 0 608 557" fill="none" xmlns="http://www.w3.org/2000/svg">
<path d="M301.333 99C301.333 100.473 302.527 101.667 304 101.667C305.473 101.667 306.667 100.473 306.667 99C306.667 97.5272 305.473 96.3333 304 96.3333C302.527 96.3333 301.333 97.5272 301.333 99ZM301.333 349C301.333 350.473 302.527 351.667 304 351.667C305.473 351.667 306.667 350.473 306.667 349C306.667 347.527 305.473 346.333 304 346.333C302.527 346.333 301.333 347.527 301.333 349ZM304 99L303.5 99L303.5 349L304 349L304.5 349L304.5 99L304 99Z" fill="black"/>
</svg>
