<svg width="608" height="557" viewBox="0 0 608 557" fill="none" xmlns="http://www.w3.org/2000/svg">
<path d="M353.333 33C353.333 34.4728 354.527 35.6667 356 35.6667C357.473 35.6667 358.667 34.4728 358.667 33C358.667 31.5272 357.473 30.3333 356 30.3333C354.527 30.3333 353.333 31.5272 353.333 33ZM353.333 524C353.333 525.473 354.527 526.667 356 526.667C357.473 526.667 358.667 525.473 358.667 524C358.667 522.527 357.473 521.333 356 521.333C354.527 521.333 353.333 522.527 353.333 524ZM356 33L355.5 33L355.5 524L356 524L356.5 524L356.5 33L356 33Z" fill="black"/>
</svg>
