<svg width="608" height="557" viewBox="0 0 608 557" fill="none" xmlns="http://www.w3.org/2000/svg">
<path d="M65.3333 448C65.3333 449.473 66.5272 450.667 68 450.667C69.4728 450.667 70.6667 449.473 70.6667 448C70.6667 446.527 69.4728 445.333 68 445.333C66.5272 445.333 65.3333 446.527 65.3333 448ZM537.333 448C537.333 449.473 538.527 450.667 540 450.667C541.473 450.667 542.667 449.473 542.667 448C542.667 446.527 541.473 445.333 540 445.333C538.527 445.333 537.333 446.527 537.333 448ZM68 448V448.5H540V448V447.5H68V448Z" fill="black"/>
</svg>
