<svg width="608" height="557" viewBox="0 0 608 557" fill="none" xmlns="http://www.w3.org/2000/svg">
<path d="M148.333 246C148.333 247.473 149.527 248.667 151 248.667C152.473 248.667 153.667 247.473 153.667 246C153.667 244.527 152.473 243.333 151 243.333C149.527 243.333 148.333 244.527 148.333 246ZM454.333 246C454.333 247.473 455.527 248.667 457 248.667C458.473 248.667 459.667 247.473 459.667 246C459.667 244.527 458.473 243.333 457 243.333C455.527 243.333 454.333 244.527 454.333 246ZM151 246V246.5H457V246V245.5H151V246Z" fill="black"/>
</svg>
