<svg width="608" height="557" viewBox="0 0 608 557" fill="none" xmlns="http://www.w3.org/2000/svg">
<path d="M372.333 105C372.333 106.473 373.527 107.667 375 107.667C376.473 107.667 377.667 106.473 377.667 105C377.667 103.527 376.473 102.333 375 102.333C373.527 102.333 372.333 103.527 372.333 105ZM372.333 452C372.333 453.473 373.527 454.667 375 454.667C376.473 454.667 377.667 453.473 377.667 452C377.667 450.527 376.473 449.333 375 449.333C373.527 449.333 372.333 450.527 372.333 452ZM375 105L374.5 105L374.5 452L375 452L375.5 452L375.5 105L375 105Z" fill="black"/>
</svg>
