<svg width="550" height="550" viewBox="0 0 550 550" fill="none" xmlns="http://www.w3.org/2000/svg">
<path d="M433.833 86.5C433.833 87.9728 435.027 89.1667 436.5 89.1667C437.973 89.1667 439.167 87.9728 439.167 86.5C439.167 85.0272 437.973 83.8333 436.5 83.8333C435.027 83.8333 433.833 85.0272 433.833 86.5ZM530.333 177.5C530.333 178.973 531.527 180.167 533 180.167C534.473 180.167 535.667 178.973 535.667 177.5C535.667 176.027 534.473 174.833 533 174.833C531.527 174.833 530.333 176.027 530.333 177.5ZM436.5 86.5L436.157 86.8638L532.657 177.864L533 177.5L533.343 177.136L436.843 86.1362L436.5 86.5Z" fill="black"/>
</svg>
