<svg width="550" height="550" viewBox="0 0 550 550" fill="none" xmlns="http://www.w3.org/2000/svg">
<path d="M140.333 112C140.333 113.473 141.527 114.667 143 114.667C144.473 114.667 145.667 113.473 145.667 112C145.667 110.527 144.473 109.333 143 109.333C141.527 109.333 140.333 110.527 140.333 112ZM405.333 112C405.333 113.473 406.527 114.667 408 114.667C409.473 114.667 410.667 113.473 410.667 112C410.667 110.527 409.473 109.333 408 109.333C406.527 109.333 405.333 110.527 405.333 112ZM143 112V112.5H408V112V111.5H143V112Z" fill="black"/>
</svg>
