<svg width="608" height="557" viewBox="0 0 608 557" fill="none" xmlns="http://www.w3.org/2000/svg">
<path d="M106.975 108.735C107.934 109.854 109.617 109.983 110.735 109.025C111.854 108.066 111.983 106.383 111.025 105.265C110.066 104.146 108.383 104.017 107.265 104.975C106.146 105.934 106.017 107.617 106.975 108.735ZM160.975 171.735C161.934 172.854 163.617 172.983 164.735 172.025C165.854 171.066 165.983 169.383 165.025 168.265C164.066 167.146 162.383 167.017 161.265 167.975C160.146 168.934 160.017 170.617 160.975 171.735ZM109 107L108.62 107.325L162.62 170.325L163 170L163.38 169.675L109.38 106.675L109 107Z" fill="black"/>
</svg>
