<svg width="550" height="550" viewBox="0 0 550 550" fill="none" xmlns="http://www.w3.org/2000/svg">
<path d="M160.333 212C160.333 213.473 161.527 214.667 163 214.667C164.473 214.667 165.667 213.473 165.667 212C165.667 210.527 164.473 209.333 163 209.333C161.527 209.333 160.333 210.527 160.333 212ZM140.333 112C140.333 113.473 141.527 114.667 143 114.667C144.473 114.667 145.667 113.473 145.667 112C145.667 110.527 144.473 109.333 143 109.333C141.527 109.333 140.333 110.527 140.333 112ZM163 212L163.49 211.902L143.49 111.902L143 112L142.51 112.098L162.51 212.098L163 212Z" fill="black"/>
</svg>
