<svg width="608" height="557" viewBox="0 0 608 557" fill="none" xmlns="http://www.w3.org/2000/svg">
<path d="M222.333 123C222.333 124.473 223.527 125.667 225 125.667C226.473 125.667 227.667 124.473 227.667 123C227.667 121.527 226.473 120.333 225 120.333C223.527 120.333 222.333 121.527 222.333 123ZM190.333 43C190.333 44.4728 191.527 45.6667 193 45.6667C194.473 45.6667 195.667 44.4728 195.667 43C195.667 41.5272 194.473 40.3333 193 40.3333C191.527 40.3333 190.333 41.5272 190.333 43ZM225 123L225.464 122.814L193.464 42.8143L193 43L192.536 43.1857L224.536 123.186L225 123Z" fill="black"/>
</svg>
