<svg width="608" height="557" viewBox="0 0 608 557" fill="none" xmlns="http://www.w3.org/2000/svg">
<path d="M372.333 110C372.333 111.473 373.527 112.667 375 112.667C376.473 112.667 377.667 111.473 377.667 110C377.667 108.527 376.473 107.333 375 107.333C373.527 107.333 372.333 108.527 372.333 110ZM372.333 448C372.333 449.473 373.527 450.667 375 450.667C376.473 450.667 377.667 449.473 377.667 448C377.667 446.527 376.473 445.333 375 445.333C373.527 445.333 372.333 446.527 372.333 448ZM375 110L374.5 110L374.5 448L375 448L375.5 448L375.5 110L375 110Z" fill="black"/>
</svg>
