<svg width="608" height="557" viewBox="0 0 608 557" fill="none" xmlns="http://www.w3.org/2000/svg">
<path d="M463.333 287C463.333 288.473 464.527 289.667 466 289.667C467.473 289.667 468.667 288.473 468.667 287C468.667 285.527 467.473 284.333 466 284.333C464.527 284.333 463.333 285.527 463.333 287ZM412.333 43C412.333 44.4728 413.527 45.6667 415 45.6667C416.473 45.6667 417.667 44.4728 417.667 43C417.667 41.5272 416.473 40.3333 415 40.3333C413.527 40.3333 412.333 41.5272 412.333 43ZM466 287L466.489 286.898L415.489 42.8977L415 43L414.511 43.1023L465.511 287.102L466 287Z" fill="black"/>
</svg>
