<svg width="608" height="557" viewBox="0 0 608 557" fill="none" xmlns="http://www.w3.org/2000/svg">
<path d="M200.333 210C200.333 211.473 201.527 212.667 203 212.667C204.473 212.667 205.667 211.473 205.667 210C205.667 208.527 204.473 207.333 203 207.333C201.527 207.333 200.333 208.527 200.333 210ZM147.333 200C147.333 201.473 148.527 202.667 150 202.667C151.473 202.667 152.667 201.473 152.667 200C152.667 198.527 151.473 197.333 150 197.333C148.527 197.333 147.333 198.527 147.333 200ZM203 210L203.093 209.509L150.093 199.509L150 200L149.907 200.491L202.907 210.491L203 210Z" fill="black"/>
</svg>
