<svg width="608" height="557" viewBox="0 0 608 557" fill="none" xmlns="http://www.w3.org/2000/svg">
<path d="M200.333 44C200.333 45.4728 201.527 46.6667 203 46.6667C204.473 46.6667 205.667 45.4728 205.667 44C205.667 42.5272 204.473 41.3333 203 41.3333C201.527 41.3333 200.333 42.5272 200.333 44ZM402.333 44C402.333 45.4728 403.527 46.6667 405 46.6667C406.473 46.6667 407.667 45.4728 407.667 44C407.667 42.5272 406.473 41.3333 405 41.3333C403.527 41.3333 402.333 42.5272 402.333 44ZM203 44V44.5H405V44V43.5H203V44Z" fill="black"/>
</svg>
