<svg width="608" height="557" viewBox="0 0 608 557" fill="none" xmlns="http://www.w3.org/2000/svg">
<path d="M197.333 279C197.333 280.473 198.527 281.667 200 281.667C201.473 281.667 202.667 280.473 202.667 279C202.667 277.527 201.473 276.333 200 276.333C198.527 276.333 197.333 277.527 197.333 279ZM405.333 279C405.333 280.473 406.527 281.667 408 281.667C409.473 281.667 410.667 280.473 410.667 279C410.667 277.527 409.473 276.333 408 276.333C406.527 276.333 405.333 277.527 405.333 279ZM200 279V279.5H408V279V278.5H200V279Z" fill="black"/>
</svg>
