<svg width="608" height="557" viewBox="0 0 608 557" fill="none" xmlns="http://www.w3.org/2000/svg">
<path d="M197.333 143C197.333 144.473 198.527 145.667 200 145.667C201.473 145.667 202.667 144.473 202.667 143C202.667 141.527 201.473 140.333 200 140.333C198.527 140.333 197.333 141.527 197.333 143ZM405.333 143C405.333 144.473 406.527 145.667 408 145.667C409.473 145.667 410.667 144.473 410.667 143C410.667 141.527 409.473 140.333 408 140.333C406.527 140.333 405.333 141.527 405.333 143ZM200 143V143.5H408V143V142.5H200V143Z" fill="black"/>
</svg>
