<svg width="608" height="557" viewBox="0 0 608 557" fill="none" xmlns="http://www.w3.org/2000/svg">
<path d="M174.405 46.6152C174.745 48.0483 176.182 48.9345 177.615 48.5947C179.048 48.2549 179.935 46.8178 179.595 45.3848C179.255 43.9517 177.818 43.0655 176.385 43.4053C174.952 43.7451 174.065 45.1822 174.405 46.6152ZM197.405 143.615C197.745 145.048 199.182 145.935 200.615 145.595C202.048 145.255 202.935 143.818 202.595 142.385C202.255 140.952 200.818 140.065 199.385 140.405C197.952 140.745 197.065 142.182 197.405 143.615ZM177 46L176.513 46.1154L199.513 143.115L200 143L200.487 142.885L177.487 45.8846L177 46Z" fill="black"/>
</svg>
