<svg width="24" height="24" viewBox="0 0 24 24" fill="none" xmlns="http://www.w3.org/2000/svg">
<path d="M18.5862 2.41437C19.3672 1.63344 20.6333 1.63336 21.4143 2.41437C22.1952 3.19539 22.1952 4.46147 21.4143 5.24249L14.8284 11.8284L21.5862 18.5862C22.3668 19.3673 22.367 20.6334 21.5862 21.4144C20.8051 22.1954 19.5381 22.1954 18.7571 21.4144L11.9993 14.6566L5.27368 21.3831C4.49267 22.1641 3.22661 22.1641 2.44556 21.3831C1.66451 20.6021 1.66451 19.336 2.44556 18.555L9.17114 11.8284L2.61646 5.27374C1.83573 4.4928 1.83584 3.22663 2.61646 2.44562C3.3975 1.66457 4.66451 1.66457 5.44556 2.44562L12.0002 9.00031L18.5862 2.41437Z" fill="#555555"/>
</svg>
