<svg width="24" height="24" viewBox="0 0 24 24" fill="none" xmlns="http://www.w3.org/2000/svg">
<path d="M22 2C23.1046 2 24 2.89543 24 4C24 5.10457 23.1046 6 22 6H2C0.895431 6 0 5.10457 0 4C0 2.89543 0.895431 2 2 2H22Z" fill="#555555"/>
<path d="M19 10C20.1046 10 21 10.8954 21 12C21 13.1046 20.1046 14 19 14H5C3.89543 14 3 13.1046 3 12C3 10.8954 3.89543 10 5 10H19Z" fill="#555555"/>
<path d="M14 18C15.1046 18 16 18.8954 16 20C16 21.1046 15.1046 22 14 22H10C8.89543 22 8 21.1046 8 20C8 18.8954 8.89543 18 10 18H14Z" fill="#555555"/>
</svg>
