<svg width="24" height="24" viewBox="0 0 24 24" fill="none" xmlns="http://www.w3.org/2000/svg">
<path d="M1.12665 9.65248C1.74888 8.73984 2.99314 8.50442 3.90577 9.12665L13.121 15.4096C14.0337 16.0318 14.2691 17.2761 13.6469 18.1887C13.0246 19.1013 11.7804 19.3368 10.8677 18.7145L1.65247 12.4316C0.739837 11.8094 0.504418 10.5651 1.12665 9.65248Z" fill="white"/>
<path d="M22.8677 9.65248C22.2455 8.73984 21.0012 8.50442 20.0886 9.12665L10.8854 15.4013C9.97303 16.0236 9.73743 17.2679 10.3596 18.1805C10.9818 19.093 12.2261 19.3283 13.1387 18.7063L22.3419 12.4316C23.2545 11.8094 23.4899 10.5651 22.8677 9.65248Z" fill="white"/>
</svg>
