<svg width="24" height="24" viewBox="0 0 24 24" fill="none" xmlns="http://www.w3.org/2000/svg">
<path d="M1.12665 15.1887C1.74888 16.1014 2.99314 16.3368 3.90577 15.7145L13.121 9.43161C14.0337 8.80937 14.2691 7.56511 13.6469 6.65248C13.0246 5.73986 11.7804 5.50445 10.8677 6.12666L1.65247 12.4096C0.739837 13.0318 0.504418 14.2761 1.12665 15.1887Z" fill="white"/>
<path d="M22.8677 15.1887C22.2455 16.1014 21.0012 16.3368 20.0886 15.7145L10.8854 9.43986C9.97303 8.81756 9.73743 7.57327 10.3596 6.66074C10.9818 5.7482 12.2261 5.51294 13.1387 6.13492L22.3419 12.4096C23.2545 13.0318 23.4899 14.2761 22.8677 15.1887Z" fill="white"/>
</svg>
