<svg width="608" height="557" viewBox="0 0 608 557" fill="none" xmlns="http://www.w3.org/2000/svg">
<path d="M381.333 59C381.333 60.4728 382.527 61.6667 384 61.6667C385.473 61.6667 386.667 60.4728 386.667 59C386.667 57.5272 385.473 56.3333 384 56.3333C382.527 56.3333 381.333 57.5272 381.333 59ZM381.333 511C381.333 512.473 382.527 513.667 384 513.667C385.473 513.667 386.667 512.473 386.667 511C386.667 509.527 385.473 508.333 384 508.333C382.527 508.333 381.333 509.527 381.333 511ZM384 59L383.5 59L383.5 511L384 511L384.5 511L384.5 59L384 59Z" fill="black"/>
</svg>
