<svg width="550" height="550" viewBox="0 0 550 550" fill="none" xmlns="http://www.w3.org/2000/svg">
<path d="M159.333 212C159.333 213.473 160.527 214.667 162 214.667C163.473 214.667 164.667 213.473 164.667 212C164.667 210.527 163.473 209.333 162 209.333C160.527 209.333 159.333 210.527 159.333 212ZM384.333 212C384.333 213.473 385.527 214.667 387 214.667C388.473 214.667 389.667 213.473 389.667 212C389.667 210.527 388.473 209.333 387 209.333C385.527 209.333 384.333 210.527 384.333 212ZM162 212V212.5H387V212V211.5H162V212Z" fill="black"/>
</svg>
