<svg width="608" height="557" viewBox="0 0 608 557" fill="none" xmlns="http://www.w3.org/2000/svg">
<path d="M455.333 171C455.333 172.473 456.527 173.667 458 173.667C459.473 173.667 460.667 172.473 460.667 171C460.667 169.527 459.473 168.333 458 168.333C456.527 168.333 455.333 169.527 455.333 171ZM429.333 45C429.333 46.4728 430.527 47.6667 432 47.6667C433.473 47.6667 434.667 46.4728 434.667 45C434.667 43.5272 433.473 42.3333 432 42.3333C430.527 42.3333 429.333 43.5272 429.333 45ZM458 171L458.49 170.899L432.49 44.899L432 45L431.51 45.101L457.51 171.101L458 171Z" fill="black"/>
</svg>
