<svg width="608" height="557" viewBox="0 0 608 557" fill="none" xmlns="http://www.w3.org/2000/svg">
<path d="M360.333 68C360.333 69.4728 361.527 70.6667 363 70.6667C364.473 70.6667 365.667 69.4728 365.667 68C365.667 66.5272 364.473 65.3333 363 65.3333C361.527 65.3333 360.333 66.5272 360.333 68ZM360.333 478.5C360.333 479.973 361.527 481.167 363 481.167C364.473 481.167 365.667 479.973 365.667 478.5C365.667 477.027 364.473 475.833 363 475.833C361.527 475.833 360.333 477.027 360.333 478.5ZM362.5 68V478.5H363.5V68H362.5Z" fill="black"/>
</svg>
