<svg width="550" height="550" viewBox="0 0 550 550" fill="none" xmlns="http://www.w3.org/2000/svg">
<path d="M159.333 212C159.333 213.473 160.527 214.667 162 214.667C163.473 214.667 164.667 213.473 164.667 212C164.667 210.527 163.473 209.333 162 209.333C160.527 209.333 159.333 210.527 159.333 212ZM140.333 110C140.333 111.473 141.527 112.667 143 112.667C144.473 112.667 145.667 111.473 145.667 110C145.667 108.527 144.473 107.333 143 107.333C141.527 107.333 140.333 108.527 140.333 110ZM162 212L162.492 211.908L143.492 109.908L143 110L142.508 110.092L161.508 212.092L162 212Z" fill="black"/>
</svg>
