<svg width="608" height="557" viewBox="0 0 608 557" fill="none" xmlns="http://www.w3.org/2000/svg">
<path d="M209.333 120C209.333 121.473 210.527 122.667 212 122.667C213.473 122.667 214.667 121.473 214.667 120C214.667 118.527 213.473 117.333 212 117.333C210.527 117.333 209.333 118.527 209.333 120ZM173.333 45C173.333 46.4728 174.527 47.6667 176 47.6667C177.473 47.6667 178.667 46.4728 178.667 45C178.667 43.5272 177.473 42.3333 176 42.3333C174.527 42.3333 173.333 43.5272 173.333 45ZM212 120L212.451 119.784L176.451 44.7836L176 45L175.549 45.2164L211.549 120.216L212 120Z" fill="black"/>
</svg>
