<svg width="608" height="557" viewBox="0 0 608 557" fill="none" xmlns="http://www.w3.org/2000/svg">
<path d="M241.333 196C241.333 197.473 242.527 198.667 244 198.667C245.473 198.667 246.667 197.473 246.667 196C246.667 194.527 245.473 193.333 244 193.333C242.527 193.333 241.333 194.527 241.333 196ZM361.333 196C361.333 197.473 362.527 198.667 364 198.667C365.473 198.667 366.667 197.473 366.667 196C366.667 194.527 365.473 193.333 364 193.333C362.527 193.333 361.333 194.527 361.333 196ZM244 196V196.5H364V196V195.5H244V196Z" fill="black"/>
</svg>
