<svg width="608" height="557" viewBox="0 0 608 557" fill="none" xmlns="http://www.w3.org/2000/svg">
<path d="M232.333 291C232.333 292.473 233.527 293.667 235 293.667C236.473 293.667 237.667 292.473 237.667 291C237.667 289.527 236.473 288.333 235 288.333C233.527 288.333 232.333 289.527 232.333 291ZM368.333 291C368.333 292.473 369.527 293.667 371 293.667C372.473 293.667 373.667 292.473 373.667 291C373.667 289.527 372.473 288.333 371 288.333C369.527 288.333 368.333 289.527 368.333 291ZM235 291V291.5H371V291V290.5H235V291Z" fill="black"/>
</svg>
