<svg width="550" height="550" viewBox="0 0 550 550" fill="none" xmlns="http://www.w3.org/2000/svg">
<path d="M159.333 420C159.333 421.473 160.527 422.667 162 422.667C163.473 422.667 164.667 421.473 164.667 420C164.667 418.527 163.473 417.333 162 417.333C160.527 417.333 159.333 418.527 159.333 420ZM384.333 420C384.333 421.473 385.527 422.667 387 422.667C388.473 422.667 389.667 421.473 389.667 420C389.667 418.527 388.473 417.333 387 417.333C385.527 417.333 384.333 418.527 384.333 420ZM162 420V420.5H387V420V419.5H162V420Z" fill="black"/>
</svg>
