<svg width="608" height="557" viewBox="0 0 608 557" fill="none" xmlns="http://www.w3.org/2000/svg">
<path d="M470.833 86.5C470.833 87.9728 472.027 89.1667 473.5 89.1667C474.973 89.1667 476.167 87.9728 476.167 86.5C476.167 85.0272 474.973 83.8333 473.5 83.8333C472.027 83.8333 470.833 85.0272 470.833 86.5ZM567.333 177.5C567.333 178.973 568.527 180.167 570 180.167C571.473 180.167 572.667 178.973 572.667 177.5C572.667 176.027 571.473 174.833 570 174.833C568.527 174.833 567.333 176.027 567.333 177.5ZM473.157 86.8638L569.657 177.864L570.343 177.136L473.843 86.1362L473.157 86.8638Z" fill="black"/>
</svg>
