<svg width="550" height="550" viewBox="0 0 550 550" fill="none" xmlns="http://www.w3.org/2000/svg">
<path d="M140.333 110.318C140.33 111.791 141.52 112.988 142.993 112.992C144.466 112.995 145.663 111.805 145.667 110.332C145.67 108.859 144.48 107.662 143.007 107.658C141.534 107.654 140.337 108.845 140.333 110.318ZM402.333 110.993C402.33 112.466 403.52 113.663 404.993 113.667C406.466 113.67 407.663 112.48 407.667 111.007C407.67 109.534 406.48 108.337 405.007 108.333C403.534 108.33 402.337 109.52 402.333 110.993ZM143 110.325L142.999 110.825L404.999 111.5L405 111L405.001 110.5L143.001 109.825L143 110.325Z" fill="black"/>
</svg>
