<svg width="550" height="550" viewBox="0 0 550 550" fill="none" xmlns="http://www.w3.org/2000/svg">
<path d="M532.333 343C532.333 344.473 533.527 345.667 535 345.667C536.473 345.667 537.667 344.473 537.667 343C537.667 341.527 536.473 340.333 535 340.333C533.527 340.333 532.333 341.527 532.333 343ZM403.333 110C403.333 111.473 404.527 112.667 406 112.667C407.473 112.667 408.667 111.473 408.667 110C408.667 108.527 407.473 107.333 406 107.333C404.527 107.333 403.333 108.527 403.333 110ZM535 343L535.437 342.758L406.437 109.758L406 110L405.563 110.242L534.563 343.242L535 343Z" fill="black"/>
</svg>
