<svg width="608" height="557" viewBox="0 0 608 557" fill="none" xmlns="http://www.w3.org/2000/svg">
<path d="M211.333 123C211.333 124.473 212.527 125.667 214 125.667C215.473 125.667 216.667 124.473 216.667 123C216.667 121.527 215.473 120.333 214 120.333C212.527 120.333 211.333 121.527 211.333 123ZM173.333 45C173.333 46.4728 174.527 47.6667 176 47.6667C177.473 47.6667 178.667 46.4728 178.667 45C178.667 43.5272 177.473 42.3333 176 42.3333C174.527 42.3333 173.333 43.5272 173.333 45ZM214 123L214.449 122.781L176.449 44.781L176 45L175.551 45.219L213.551 123.219L214 123Z" fill="black"/>
</svg>
