<svg width="608" height="557" viewBox="0 0 608 557" fill="none" xmlns="http://www.w3.org/2000/svg">
<path d="M114.333 254.5C114.333 255.973 115.527 257.167 117 257.167C118.473 257.167 119.667 255.973 119.667 254.5C119.667 253.027 118.473 251.833 117 251.833C115.527 251.833 114.333 253.027 114.333 254.5ZM40.8333 181C40.8333 182.473 42.0272 183.667 43.5 183.667C44.9728 183.667 46.1667 182.473 46.1667 181C46.1667 179.527 44.9728 178.333 43.5 178.333C42.0272 178.333 40.8333 179.527 40.8333 181ZM117.354 254.146L43.8536 180.646L43.1464 181.354L116.646 254.854L117.354 254.146Z" fill="black"/>
</svg>
