<svg width="608" height="557" viewBox="0 0 608 557" fill="none" xmlns="http://www.w3.org/2000/svg">
<path d="M153.333 86.5C153.333 87.9728 154.527 89.1667 155.999 89.1667C157.472 89.1667 158.666 87.9728 158.666 86.5C158.666 85.0272 157.472 83.8333 155.999 83.8333C154.527 83.8333 153.333 85.0272 153.333 86.5ZM449.334 86.5C449.334 87.9728 450.528 89.1667 452.001 89.1667C453.474 89.1667 454.668 87.9728 454.668 86.5C454.668 85.0272 453.474 83.8333 452.001 83.8333C450.528 83.8333 449.334 85.0272 449.334 86.5ZM155.999 86.5V87H452.001V86.5V86H155.999V86.5Z" fill="black"/>
</svg>
