<svg width="608" height="557" viewBox="0 0 608 557" fill="none" xmlns="http://www.w3.org/2000/svg">
<path d="M199.333 188C199.333 189.473 200.527 190.667 202 190.667C203.473 190.667 204.667 189.473 204.667 188C204.667 186.527 203.473 185.333 202 185.333C200.527 185.333 199.333 186.527 199.333 188ZM153.333 87C153.333 88.4728 154.527 89.6667 156 89.6667C157.473 89.6667 158.667 88.4728 158.667 87C158.667 85.5272 157.473 84.3333 156 84.3333C154.527 84.3333 153.333 85.5272 153.333 87ZM202 188L202.455 187.793L156.455 86.7928L156 87L155.545 87.2072L201.545 188.207L202 188Z" fill="black"/>
</svg>
