<svg width="608" height="557" viewBox="0 0 608 557" fill="none" xmlns="http://www.w3.org/2000/svg">
<path d="M139.333 86.5C139.333 87.9728 140.527 89.1667 142 89.1667C143.473 89.1667 144.667 87.9728 144.667 86.5C144.667 85.0272 143.473 83.8333 142 83.8333C140.527 83.8333 139.333 85.0272 139.333 86.5ZM457.333 86.5C457.333 87.9728 458.527 89.1667 460 89.1667C461.473 89.1667 462.667 87.9728 462.667 86.5C462.667 85.0272 461.473 83.8333 460 83.8333C458.527 83.8333 457.333 85.0272 457.333 86.5ZM142 87H460V86H142V87Z" fill="black"/>
</svg>
