<svg width="608" height="557" viewBox="0 0 608 557" fill="none" xmlns="http://www.w3.org/2000/svg">
<path d="M165.833 478.5C165.833 479.973 167.027 481.167 168.5 481.167C169.973 481.167 171.167 479.973 171.167 478.5C171.167 477.027 169.973 475.833 168.5 475.833C167.027 475.833 165.833 477.027 165.833 478.5ZM435.333 478.5C435.333 479.973 436.527 481.167 438 481.167C439.473 481.167 440.667 479.973 440.667 478.5C440.667 477.027 439.473 475.833 438 475.833C436.527 475.833 435.333 477.027 435.333 478.5ZM168.5 479H438V478H168.5V479Z" fill="black"/>
</svg>
